<svg xmlns="http://www.w3.org/2000/svg" width="16" height="16" viewBox="0 0 12 12"><path d="M11 6A5 5 0 1 0 1 6a5 5 0 0 0 10 0Zm0 0" style="fill:none;stroke:#000;stroke-width:1.2;stroke-linecap:butt;stroke-linejoin:miter;stroke-miterlimit:10;stroke-opacity:1;stroke-dasharray:none"/><path style="fill:#000;fill-opacity:1;stroke:none;stroke-width:.30000001;stroke-linecap:butt;stroke-linejoin:miter;stroke-miterlimit:10;stroke-opacity:1" d="M3.5 8.5A2.5 2.5 0 0 1 6 6a2.5 2.5 0 1 0 0-5 5 5 0 1 1 0 10 2.5 2.5 0 0 1-2.5-2.5Z"/><path d="M1 6a5 5 0 0 1 5-5 2.5 2.5 0 1 1 0 5 2.5 2.5 0 1 0 0 5 5 5 0 0 1-5-5Z" style="fill:#fff;fill-opacity:1;stroke:none;stroke-width:.15000001;stroke-linecap:butt;stroke-linejoin:miter;stroke-miterlimit:10;stroke-dasharray:none;stroke-opacity:1"/><path style="fill:#000;fill-opacity:1;fill-rule:nonzero;stroke:none" d="M6.898 3.5a.899.899 0 1 0-1.797 0 .899.899 0 0 0 1.797 0"/><path style="fill:#fff;fill-opacity:1;fill-rule:nonzero;stroke:none;stroke-width:.99999994" d="M6.898 8.5a.899.899 0 1 0-1.797 0 .899.899 0 0 0 1.797 0"/></svg>